<svg width="12" height="11" viewBox="0 0 12 11" fill="none" xmlns="http://www.w3.org/2000/svg">
<path fill-rule="evenodd" clip-rule="evenodd" d="M5.07692 10.2667C5.07692 10.2667 3 6.96667 3 6.6V0.733333C3 0.366666 3 0.183333 3.08654 0.0916664C3.17308 -2.38419e-07 3.34615 -2.38419e-07 3.69231 -2.38419e-07H9.92308C10.9982 -2.38419e-07 11.1194 0.432667 11.2537 0.9152C11.2707 0.977123 11.2887 1.03873 11.3077 1.1C11.9135 3.48333 12 5.31667 12 6.6C12 8.06667 11.0481 8.06667 10.6154 8.06667H7.84615V8.8C7.84615 8.8 7.84615 11 5.76923 11C5.42308 11 5.07692 10.2667 5.07692 10.2667ZM6.94615 8.79267C6.94615 8.7978 6.94615 8.80953 6.94408 8.8264C6.92958 9.05107 6.87434 9.27067 6.78138 9.4732C6.71214 9.63006 6.60488 9.76467 6.47054 9.86333C6.32687 9.95952 6.16355 10.0179 5.99423 10.0335C5.9545 9.974 5.91821 9.91204 5.88554 9.84793L5.88069 9.83767L5.85715 9.78707L5.826 9.73793L5.80315 9.702L5.73808 9.5986C5.42073 9.0892 5.10802 8.57658 4.8 8.0608C4.56096 7.66354 4.32968 7.2611 4.10631 6.85373C4.03352 6.72102 3.96495 6.58577 3.90069 6.4482V0.953333H9.92308C10.1571 0.953333 10.2789 0.979 10.3343 0.9966L10.3412 1.01567C10.3537 1.05307 10.3662 1.09707 10.3855 1.16527L10.3911 1.1858C10.4049 1.23787 10.4236 1.30387 10.4451 1.3728C11.019 3.641 11.1 5.37827 11.1 6.6C11.1 6.86033 11.0578 6.9828 11.0377 7.02607C11.0238 7.05687 11.0155 7.06127 11.0121 7.06273H11.0114C10.9721 7.08316 10.9296 7.09584 10.8861 7.10013C10.7963 7.11136 10.7058 7.11577 10.6154 7.11333H6.94615V8.79267ZM10.3731 1.01347L10.3641 1.0076C10.3667 1.01008 10.3698 1.01207 10.3731 1.01347Z" fill="white"/>
<path fill-rule="evenodd" clip-rule="evenodd" d="M0.981132 5.98889V1.01111H3.01887V5.98889H0.981132ZM0.754717 7C0.554554 7 0.362588 6.91806 0.221051 6.77219C0.0795146 6.62633 0 6.4285 0 6.22222L0 0.777778C0 0.571498 0.0795146 0.373667 0.221051 0.227806C0.362588 0.0819442 0.554554 -1.19209e-07 0.754717 -1.19209e-07H4V7H0.754717Z" fill="white"/>
</svg>
