<svg width="12" height="11" viewBox="0 0 12 11" fill="none" xmlns="http://www.w3.org/2000/svg">
<path fill-rule="evenodd" clip-rule="evenodd" d="M5.07692 0.733333C5.07692 0.733333 3 4.03333 3 4.4V10.2667C3 10.6333 3 10.8167 3.08654 10.9083C3.17308 11 3.34615 11 3.69231 11H9.92308C10.9982 11 11.1194 10.5673 11.2537 10.0848C11.2707 10.0229 11.2887 9.96127 11.3077 9.9C11.9135 7.51667 12 5.68333 12 4.4C12 2.93333 11.0481 2.93333 10.6154 2.93333H7.84615V2.2C7.84615 2.2 7.84615 0 5.76923 0C5.42308 0 5.07692 0.733333 5.07692 0.733333ZM6.94615 2.20733C6.94615 2.2022 6.94615 2.19047 6.94408 2.1736C6.92958 1.94893 6.87434 1.72933 6.78138 1.5268C6.71214 1.36994 6.60488 1.23533 6.47054 1.13667C6.32687 1.04048 6.16355 0.982138 5.99423 0.966533C5.9545 1.026 5.91821 1.08796 5.88554 1.15207L5.88069 1.16233L5.85715 1.21293L5.826 1.26207L5.80315 1.298L5.73808 1.4014C5.42073 1.9108 5.10802 2.42342 4.8 2.9392C4.56096 3.33646 4.32968 3.7389 4.10631 4.14627C4.03352 4.27898 3.96495 4.41423 3.90069 4.5518V10.0467H9.92308C10.1571 10.0467 10.2789 10.021 10.3343 10.0034L10.3412 9.98433C10.3537 9.94693 10.3662 9.90293 10.3855 9.83473L10.3911 9.8142C10.4049 9.76213 10.4236 9.69613 10.4451 9.6272C11.019 7.359 11.1 5.62173 11.1 4.4C11.1 4.13967 11.0578 4.0172 11.0377 3.97393C11.0238 3.94313 11.0155 3.93873 11.0121 3.93727H11.0114C10.9721 3.91684 10.9296 3.90416 10.8861 3.89987C10.7963 3.88864 10.7058 3.88423 10.6154 3.88667H6.94615V2.20733ZM10.3731 9.98653L10.3641 9.9924C10.3667 9.98992 10.3698 9.98793 10.3731 9.98653Z" fill="white"/>
<path fill-rule="evenodd" clip-rule="evenodd" d="M0.981132 5.01111V9.98889H3.01887V5.01111H0.981132ZM0.754717 4C0.554554 4 0.362588 4.08194 0.221051 4.22781C0.0795146 4.37367 0 4.5715 0 4.77778L0 10.2222C0 10.4285 0.0795146 10.6263 0.221051 10.7722C0.362588 10.9181 0.554554 11 0.754717 11H4V4H0.754717Z" fill="white"/>
</svg>
